<svg xmlns="http://www.w3.org/2000/svg" xmlns:xlink="http://www.w3.org/1999/xlink" width="24" height="24" viewBox="0 0 24 24">
    <defs>
        <path id="a" d="M12 12.5a5.5 5.5 0 1 1 0-11 5.5 5.5 0 0 1 0 11zm0-1a4.5 4.5 0 1 0 0-9 4.5 4.5 0 0 0 0 9zm-1.496 6a.5.5 0 1 1 0-1h3a.5.5 0 0 1 0 1h-3zm6.016.493a1.5 1.5 0 1 1 0-3 1.5 1.5 0 0 1 0 3zm0-1a.5.5 0 1 0 0-1 .5.5 0 0 0 0 1zm-9.02 1a1.5 1.5 0 1 1 0-3 1.5 1.5 0 0 1 0 3zm0-1a.5.5 0 1 0 0-1 .5.5 0 0 0 0 1zM5 20v.5a.5.5 0 0 0 .5.5h1a.5.5 0 0 0 .5-.5V20H5zm-1-1h4v1.5A1.5 1.5 0 0 1 6.5 22h-1A1.5 1.5 0 0 1 4 20.5V19zm13 1v.5a.5.5 0 0 0 .5.5h1a.5.5 0 0 0 .5-.5V20h-2zm-1-1h4v1.5a1.5 1.5 0 0 1-1.5 1.5h-1a1.5 1.5 0 0 1-1.5-1.5V19zM5 14v5h14v-5H5zm15-.996v6.067c0 .513-.448.929-1 .929H5c-.552 0-1-.416-1-.929v-6.067c0-.498.056-1.736.17-3.714L4.3 5.615c0-.958.235-1.496.705-1.615h1c.001.404-.245.775-.626.928-.047.132-.079.367-.08.723L5.055 12.5a.5.5 0 0 0 .5.5h12.91a.5.5 0 0 0 .482-.517l-.262-7.545A1 1 0 0 1 18.032 4h1c.346 0 .63.274.642.62l.171 4.923.112 2.135c.029.631.043 1.074.043 1.326zM3.5 6v2a.5.5 0 0 1-1 0V6a.5.5 0 0 1 1 0zm8.306 2.79c.176 0 .322.059.436.176a.617.617 0 0 1 .172.45.644.644 0 0 1-.172.462.576.576 0 0 1-.436.18.559.559 0 0 1-.427-.185.647.647 0 0 1-.172-.458c0-.181.058-.331.172-.449a.572.572 0 0 1 .427-.176zM21 5.5a.5.5 0 0 1 .5.5v2a.5.5 0 1 1-1 0V6a.5.5 0 0 1 .5-.5zm-9-1.667c.552 0 .99.129 1.316.387.326.258.49.628.49 1.11 0 .223-.039.42-.115.59-.077.17-.168.314-.273.431a4.35 4.35 0 0 1-.302.299l-.13.115c-.24.205-.421.392-.541.56a.975.975 0 0 0-.174.477l-.007.143h-.88c0-.235.035-.44.105-.616.07-.177.154-.322.251-.436.073-.086.166-.183.28-.29l.12-.111c.2-.182.347-.34.441-.476a.874.874 0 0 0 .141-.51c0-.23-.072-.4-.216-.515-.143-.115-.345-.172-.603-.172-.27 0-.481.072-.634.216a.817.817 0 0 0-.235.503l-.011.135h-.89c.006-.575.176-1.026.51-1.352.336-.325.788-.488 1.357-.488z"/>
    </defs>
    <g fill="none" fill-rule="evenodd">
        <path d="M0 0h24v24H0z"/>
        <mask id="b" fill="#fff">
            <use xlink:href="#a"/>
        </mask>
        <use fill="#D84E55" fill-rule="nonzero" xlink:href="#a"/>
        <g mask="url(#b)">
            <path d="M0 0h24v24H0z"/>
            <path fill="#D84E55" d="M0 0h24v24H0z"/>
        </g>
    </g>
</svg>
