<svg width="24" height="25" viewBox="0 0 24 25" fill="none" xmlns="http://www.w3.org/2000/svg">
<rect width="24" height="24" transform="translate(0 0.162781)" fill="white"/>
<mask id="mask0_326_2152" style="mask-type:alpha" maskUnits="userSpaceOnUse" x="2" y="2" width="21" height="21">
<path d="M6.81276 17.0409L6.87122 17.0764C6.83802 16.7589 6.82128 16.4384 6.82128 16.1158C6.82128 11.0708 10.9111 6.98096 15.9561 6.98096C16.3256 6.98096 16.6277 6.99145 16.903 7.0194C15.6005 4.94714 13.2988 3.66278 10.7727 3.66278C6.75611 3.66278 3.5 6.91889 3.5 10.9355C3.5 12.3915 3.92816 13.7824 4.71867 14.967L4.85467 15.1708L3.9213 17.9612L6.81276 17.0409ZM15.9545 9.57187C19.5695 9.57187 22.5 12.5024 22.5 16.1173C22.5 17.2399 22.2165 18.3212 21.6872 19.2789L21.5367 19.5369L22.2444 21.6524C22.367 22.0191 22.1692 22.4157 21.8026 22.5383C21.697 22.5737 21.5851 22.5831 21.476 22.5666L21.3683 22.5415L19.1448 21.8339C18.1789 22.3742 17.0874 22.6628 15.9545 22.6628C12.3396 22.6628 9.40909 19.7323 9.40909 16.1173C9.40909 12.5024 12.3396 9.57187 15.9545 9.57187ZM15.9545 10.5719C12.8919 10.5719 10.4091 13.0547 10.4091 16.1173C10.4091 19.18 12.8919 21.6628 15.9545 21.6628C16.8792 21.6628 17.7696 21.4365 18.5644 21.0116L18.8258 20.8626L19.0201 20.7448L21.1087 21.4095L20.4348 19.3951L20.5708 19.1913C21.1736 18.288 21.5 17.2276 21.5 16.1173C21.5 13.0547 19.0172 10.5719 15.9545 10.5719ZM10.7727 2.66278C13.6757 2.66278 16.3223 4.15734 17.798 6.56508C18.0109 6.9124 18.1246 7.15938 18.1398 7.3989C18.1722 7.90865 17.7844 8.15022 17.3135 8.09332L17.2114 8.07654C16.8684 8.00544 16.5018 7.98096 15.9561 7.98096C11.4634 7.98096 7.82128 11.623 7.82128 16.1158C7.82128 16.719 7.88686 17.3134 8.01562 17.8918C8.13078 18.4091 7.84327 18.9514 7.22351 18.6467C7.12118 18.5964 7.03886 18.5352 6.91746 18.4228L6.63362 18.1474L3.61053 19.1095C3.47459 19.1527 3.32841 19.1517 3.19311 19.1064C2.84076 18.9886 2.65067 18.6074 2.76853 18.255L3.75236 15.3139C2.93901 14.0125 2.5 12.5061 2.5 10.9355C2.5 6.36661 6.20383 2.66278 10.7727 2.66278ZM13.0257 15.1628C13.4675 15.1628 13.8257 15.521 13.8257 15.9628C13.8257 16.4046 13.4675 16.7628 13.0257 16.7628C12.5839 16.7628 12.2257 16.4046 12.2257 15.9628C12.2257 15.521 12.5839 15.1628 13.0257 15.1628ZM16.0257 15.1628C16.4675 15.1628 16.8257 15.521 16.8257 15.9628C16.8257 16.4046 16.4675 16.7628 16.0257 16.7628C15.5839 16.7628 15.2257 16.4046 15.2257 15.9628C15.2257 15.521 15.5839 15.1628 16.0257 15.1628ZM19.0257 15.1628C19.4675 15.1628 19.8257 15.521 19.8257 15.9628C19.8257 16.4046 19.4675 16.7628 19.0257 16.7628C18.5839 16.7628 18.2257 16.4046 18.2257 15.9628C18.2257 15.521 18.5839 15.1628 19.0257 15.1628Z" fill="white"/>
</mask>
<g mask="url(#mask0_326_2152)">
<path d="M6.81276 17.0409L6.87122 17.0764C6.83802 16.7589 6.82128 16.4384 6.82128 16.1158C6.82128 11.0708 10.9111 6.98096 15.9561 6.98096C16.3256 6.98096 16.6277 6.99145 16.903 7.0194C15.6005 4.94714 13.2988 3.66278 10.7727 3.66278C6.75611 3.66278 3.5 6.91889 3.5 10.9355C3.5 12.3915 3.92816 13.7824 4.71867 14.967L4.85467 15.1708L3.9213 17.9612L6.81276 17.0409ZM15.9545 9.57187C19.5695 9.57187 22.5 12.5024 22.5 16.1173C22.5 17.2399 22.2165 18.3212 21.6872 19.2789L21.5367 19.5369L22.2444 21.6524C22.367 22.0191 22.1692 22.4157 21.8026 22.5383C21.697 22.5737 21.5851 22.5831 21.476 22.5666L21.3683 22.5415L19.1448 21.8339C18.1789 22.3742 17.0874 22.6628 15.9545 22.6628C12.3396 22.6628 9.40909 19.7323 9.40909 16.1173C9.40909 12.5024 12.3396 9.57187 15.9545 9.57187ZM15.9545 10.5719C12.8919 10.5719 10.4091 13.0547 10.4091 16.1173C10.4091 19.18 12.8919 21.6628 15.9545 21.6628C16.8792 21.6628 17.7696 21.4365 18.5644 21.0116L18.8258 20.8626L19.0201 20.7448L21.1087 21.4095L20.4348 19.3951L20.5708 19.1913C21.1736 18.288 21.5 17.2276 21.5 16.1173C21.5 13.0547 19.0172 10.5719 15.9545 10.5719ZM10.7727 2.66278C13.6757 2.66278 16.3223 4.15734 17.798 6.56508C18.0109 6.9124 18.1246 7.15938 18.1398 7.3989C18.1722 7.90865 17.7844 8.15022 17.3135 8.09332L17.2114 8.07654C16.8684 8.00544 16.5018 7.98096 15.9561 7.98096C11.4634 7.98096 7.82128 11.623 7.82128 16.1158C7.82128 16.719 7.88686 17.3134 8.01562 17.8918C8.13078 18.4091 7.84327 18.9514 7.22351 18.6467C7.12118 18.5964 7.03886 18.5352 6.91746 18.4228L6.63362 18.1474L3.61053 19.1095C3.47459 19.1527 3.32841 19.1517 3.19311 19.1064C2.84076 18.9886 2.65067 18.6074 2.76853 18.255L3.75236 15.3139C2.93901 14.0125 2.5 12.5061 2.5 10.9355C2.5 6.36661 6.20383 2.66278 10.7727 2.66278ZM13.0257 15.1628C13.4675 15.1628 13.8257 15.521 13.8257 15.9628C13.8257 16.4046 13.4675 16.7628 13.0257 16.7628C12.5839 16.7628 12.2257 16.4046 12.2257 15.9628C12.2257 15.521 12.5839 15.1628 13.0257 15.1628ZM16.0257 15.1628C16.4675 15.1628 16.8257 15.521 16.8257 15.9628C16.8257 16.4046 16.4675 16.7628 16.0257 16.7628C15.5839 16.7628 15.2257 16.4046 15.2257 15.9628C15.2257 15.521 15.5839 15.1628 16.0257 15.1628ZM19.0257 15.1628C19.4675 15.1628 19.8257 15.521 19.8257 15.9628C19.8257 16.4046 19.4675 16.7628 19.0257 16.7628C18.5839 16.7628 18.2257 16.4046 18.2257 15.9628C18.2257 15.521 18.5839 15.1628 19.0257 15.1628Z" fill="#3E3E52"/>
</g>
</svg>
