<svg xmlns="http://www.w3.org/2000/svg" width="24" height="24" viewBox="0 0 24 24">
    <g fill="none" fill-rule="evenodd">
        <path d="M0 0h24v24H0z"/>
        <path fill="#D84E55" fill-rule="nonzero" d="M11.328 21.409l-.68.345c-1.126.572-2.485.113-3.073-1.037l-.354-.695a1.535 1.535 0 0 0-1.087-.82l-.746-.136c-1.234-.225-2.074-1.427-1.899-2.716l.106-.779a1.63 1.63 0 0 0-.415-1.327l-.527-.566a2.482 2.482 0 0 1 0-3.356l.527-.566a1.63 1.63 0 0 0 .415-1.327l-.106-.78c-.175-1.288.665-2.49 1.899-2.715l.746-.136a1.535 1.535 0 0 0 1.087-.82l.354-.695c.588-1.15 1.947-1.61 3.073-1.037l.68.345c.424.215.92.215 1.344 0l.68-.345c1.126-.572 2.485-.113 3.073 1.037l.354.695c.221.433.623.736 1.087.82l.746.136c1.234.225 2.074 1.427 1.899 2.716l-.106.779a1.63 1.63 0 0 0 .415 1.327l.527.566c.87.935.87 2.42 0 3.356l-.527.566a1.63 1.63 0 0 0-.415 1.327l.106.78c.175 1.288-.665 2.49-1.899 2.715l-.746.136a1.535 1.535 0 0 0-1.087.82l-.354.695c-.588 1.15-1.947 1.61-3.073 1.037l-.68-.345a1.478 1.478 0 0 0-1.344 0zm1.797-.892l.68.346c.63.32 1.39.063 1.729-.6l.355-.695a2.535 2.535 0 0 1 1.798-1.35l.746-.136c.7-.128 1.191-.83 1.087-1.597l-.106-.779a2.629 2.629 0 0 1 .674-2.144l.527-.565a1.482 1.482 0 0 0 0-1.994l-.527-.565a2.629 2.629 0 0 1-.674-2.144l.106-.78c.104-.766-.387-1.468-1.087-1.596l-.746-.136a2.535 2.535 0 0 1-1.798-1.35l-.355-.694c-.339-.664-1.1-.92-1.73-.6l-.68.345c-.708.36-1.54.36-2.249 0l-.68-.346c-.63-.32-1.39-.063-1.729.6l-.355.695a2.535 2.535 0 0 1-1.798 1.35l-.746.136c-.7.128-1.191.83-1.087 1.597l.106.779a2.629 2.629 0 0 1-.674 2.144l-.527.565a1.482 1.482 0 0 0 0 1.994l.527.565c.533.573.78 1.363.674 2.144l-.106.78c-.104.766.387 1.468 1.087 1.596l.746.136a2.535 2.535 0 0 1 1.798 1.35l.355.694c.339.664 1.1.92 1.73.6l.68-.345c.708-.36 1.54-.36 2.249 0zm-3.332-4.336a.5.5 0 0 1-.754-.53l.578-2.67-1.956-1.8a.5.5 0 0 1 .291-.866l2.566-.245 1.019-2.501a.5.5 0 0 1 .926 0l1.02 2.501 2.565.245a.5.5 0 0 1 .29.866l-1.955 1.8.578 2.67a.5.5 0 0 1-.754.53L12 14.797l-2.207 1.384zm1.941-2.397a.5.5 0 0 1 .532 0l1.467.92-.388-1.792a.5.5 0 0 1 .15-.474l1.342-1.234-1.751-.167a.5.5 0 0 1-.415-.31L12 9.083l-.67 1.646a.5.5 0 0 1-.416.309l-1.75.167 1.34 1.234a.5.5 0 0 1 .15.474l-.387 1.792 1.467-.92z"/>
    </g>
</svg>
