<svg width="40" height="26" viewBox="0 0 40 26" fill="none" xmlns="http://www.w3.org/2000/svg">
<path fill-rule="evenodd" clip-rule="evenodd" d="M37.7392 3.29608C36.7428 1.46933 35.4617 0.425468 34.0857 0.283123C21.1798 -0.926804 4.7153 1.94381 1.34648 5.05166C-0.124408 6.40393 -0.385373 9.58295 0.539865 14.7785C1.18041 18.4083 2.17683 21.6585 2.20055 21.8008L2.41407 22.5126L6.51833 22.0618C6.85046 24.2919 8.77211 26 11.0971 26C13.6355 26 15.7233 23.936 15.7233 21.3738C15.7233 21.2552 15.7233 21.1603 15.6995 21.0417L25.4264 19.9266C25.4264 19.9504 25.4264 19.9978 25.4264 20.0215C25.4264 22.56 27.4904 24.6477 30.0526 24.6477C32.5911 24.6477 34.6788 22.5837 34.6788 20.0215C34.6788 19.642 34.6313 19.2624 34.5364 18.9065L38.6881 18.432L38.9017 17.9813C40.5623 14.565 39.993 7.42406 37.7392 3.29608ZM11.0971 24.1732C9.55501 24.1732 8.29763 22.9159 8.29763 21.3738C8.29763 19.8317 9.55501 18.5744 11.0971 18.5744C12.6391 18.5744 13.8965 19.8317 13.8965 21.3738C13.8965 22.9159 12.6391 24.1732 11.0971 24.1732ZM30.0289 22.8447C28.4868 22.8447 27.2294 21.5873 27.2294 20.0453C27.2294 18.5032 28.4868 17.2458 30.0289 17.2458C31.5709 17.2458 32.8283 18.5032 32.8283 20.0453C32.8283 21.5873 31.5709 22.8447 30.0289 22.8447ZM37.4308 16.7476L33.6586 17.1747C33.374 16.7951 33.0181 16.4867 32.6385 16.2257C31.9031 15.7038 31.0016 15.4191 30.0289 15.4191C28.6054 15.4191 27.3006 16.0833 26.4703 17.1035C26.2093 17.3882 25.9721 17.7203 25.7348 18.0762L15.2013 19.2624C15.1064 19.0726 14.9878 18.8828 14.8692 18.7167C14.8455 18.693 14.8455 18.6693 14.8217 18.6455C13.9677 17.5068 12.6154 16.7476 11.0971 16.7476C9.91087 16.7476 8.84329 17.1984 8.03667 17.9101C7.34867 18.4795 6.82674 19.2624 6.51833 20.2113L3.71889 20.5197C2.22427 15.3242 0.943174 7.89855 2.58013 6.38021C4.83392 4.29249 16.3875 1.80146 27.6802 1.80146C29.7916 1.80146 31.8793 1.89636 33.8959 2.08615C34.6551 2.18105 35.4617 2.91649 36.1497 4.17387C38.0001 7.56641 38.5933 13.6872 37.4308 16.7476ZM6.73184 9.89137C6.63695 9.82019 6.4946 9.74902 6.30481 9.67785C6.11502 9.60668 5.9015 9.58295 5.66426 9.58295C5.37957 9.58295 5.14233 9.6304 4.92882 9.70157C4.73902 9.79647 4.57296 9.89137 4.43061 10.0337V13.7821H2.86482V8.23068L4.43061 8.13579V8.68144L4.92882 8.37303C5.09488 8.27813 5.26095 8.20696 5.47447 8.13579C5.68799 8.06461 5.85405 8.04089 6.04385 8.04089C6.23364 8.04089 6.37598 8.04089 6.47088 8.06461C6.5895 8.08834 6.66067 8.11206 6.73184 8.13579V9.89137ZM11.192 10.5082C11.1208 10.0812 10.9547 9.77275 10.7175 9.55923C10.4802 9.34571 10.1956 9.25082 9.83969 9.25082C9.43639 9.25082 9.12797 9.36944 8.91446 9.60668C8.70094 9.84392 8.58232 10.1523 8.53487 10.5319H11.192V10.5082ZM12.6629 11.2436H8.5586C8.65349 11.6944 8.81956 12.0265 9.08053 12.2163C9.34149 12.4061 9.67363 12.5247 10.0532 12.5247C10.3616 12.5247 10.6938 12.4773 11.0733 12.3824C11.4529 12.2875 11.7376 12.1689 11.9511 12.0265V13.4263C11.7376 13.5686 11.4529 13.6872 11.0259 13.7584C10.6226 13.8296 10.2905 13.877 10.0532 13.877C9.08053 13.877 8.29763 13.616 7.75198 13.0704C7.20633 12.5247 6.92164 11.813 6.92164 10.9115C6.92164 10.01 7.20632 9.27454 7.7757 8.72889C8.34508 8.18323 9.03308 7.89855 9.88714 7.89855C10.7412 7.89855 11.4055 8.20696 11.9037 8.80006C12.4019 9.39316 12.6629 10.2235 12.6629 11.2436ZM17.1467 12.074V9.6304C17.0518 9.51178 16.9095 9.41689 16.7197 9.34571C16.5299 9.27454 16.3164 9.22709 16.0791 9.22709C15.6521 9.22709 15.32 9.34571 15.1302 9.60668C14.9166 9.86764 14.8217 10.271 14.8217 10.8166C14.8217 11.386 14.9404 11.7893 15.1539 12.074C15.3674 12.3587 15.6758 12.4773 16.0554 12.4773C16.2926 12.4773 16.5062 12.4298 16.6959 12.3587C16.8857 12.2875 17.0281 12.1926 17.1467 12.074ZM18.6888 13.7821H17.5026L17.1704 13.2602L16.3401 13.7109C16.2689 13.7584 16.174 13.7821 16.0317 13.8058C15.8893 13.8296 15.7944 13.8296 15.6995 13.8296C14.8929 13.8296 14.2761 13.5686 13.8491 12.9992C13.422 12.4536 13.2085 11.7656 13.2085 10.9352C13.2085 10.0337 13.4695 9.32199 13.9677 8.80006C14.4896 8.27813 15.1539 8.01717 15.9842 8.01717C16.2215 8.01717 16.435 8.04089 16.6248 8.06461C16.8146 8.11206 16.9806 8.15951 17.1467 8.27813V5.83455H18.6888V13.7821ZM24.003 11.2674C24.003 10.8641 23.8843 10.5556 23.6708 10.3658C23.4573 10.1761 23.1489 10.0812 22.793 10.0812H21.7017V12.4536H22.9354C23.2912 12.4536 23.5759 12.3587 23.742 12.1452C23.9081 11.9554 24.003 11.6469 24.003 11.2674ZM23.7183 8.25441C23.7183 7.94599 23.6234 7.68503 23.4336 7.49524C23.2438 7.30544 22.9828 7.21055 22.6507 7.21055H21.7017V9.34571H22.7456C23.054 9.34571 23.2912 9.25082 23.4573 9.06102C23.6471 8.84751 23.7183 8.58654 23.7183 8.25441ZM25.7585 11.4809C25.7585 12.1689 25.545 12.7383 25.0943 13.1416C24.6435 13.5686 24.0741 13.7584 23.3861 13.7584H19.9936V5.85828H23.315C23.9318 5.85828 24.4537 6.02434 24.8333 6.38021C25.2366 6.73607 25.4264 7.21055 25.4264 7.82737C25.4264 8.32558 25.3078 8.70516 25.0705 9.01358C24.8333 9.32199 24.4774 9.48806 24.003 9.55923C24.4774 9.6304 24.8807 9.84392 25.2366 10.1761C25.5925 10.5082 25.7585 10.9352 25.7585 11.4809ZM31.9268 13.7821H30.361V13.1653L29.6967 13.5449C29.5069 13.6398 29.3171 13.7347 29.1274 13.7821C28.9376 13.8296 28.7003 13.877 28.4868 13.877C27.9412 13.877 27.5141 13.7109 27.182 13.3788C26.8736 13.0467 26.7075 12.5959 26.7075 12.0265V8.25441H28.2733V11.6707C28.2733 11.8842 28.3445 12.0503 28.4868 12.2163C28.6291 12.3824 28.8664 12.4536 29.1511 12.4536C29.4358 12.4536 29.673 12.4061 29.8628 12.2875C30.0763 12.1689 30.2187 12.074 30.3136 11.9554V8.23068H31.8793V13.7821H31.9268ZM37.3833 11.8842C37.3833 12.4773 37.1698 12.9755 36.7428 13.3551C36.3157 13.7109 35.7701 13.9007 35.1295 13.9007C34.8211 13.9007 34.4653 13.877 34.062 13.8058C33.6349 13.7347 33.2791 13.616 32.9469 13.45V12.0503C33.2079 12.1926 33.4926 12.3112 33.8247 12.4298C34.1569 12.5247 34.5127 12.5959 34.9635 12.5959C35.2719 12.5959 35.5091 12.5485 35.6989 12.4773C35.8887 12.3824 35.9836 12.24 35.9836 12.0028C35.9836 11.8605 35.9124 11.7181 35.7464 11.6232C35.5803 11.5283 35.3193 11.4572 34.916 11.4334C34.2043 11.386 33.7298 11.1962 33.4451 10.9115C33.1604 10.6268 33.0181 10.2472 33.0181 9.77275C33.0181 9.22709 33.2316 8.80006 33.6586 8.4442C34.0857 8.08834 34.6313 7.92227 35.2482 7.92227C35.5328 7.92227 35.8175 7.94599 36.1259 7.99344C36.4344 8.04089 36.6953 8.08834 36.9326 8.18323V9.60668C36.6479 9.48806 36.3869 9.39316 36.1259 9.34571C35.865 9.29826 35.5566 9.25082 35.2482 9.25082C34.9872 9.25082 34.7974 9.29826 34.6551 9.36944C34.5127 9.46433 34.4415 9.55923 34.4415 9.65413C34.4415 9.86764 34.5364 10.01 34.75 10.0574C34.9397 10.1286 35.1533 10.1761 35.3905 10.1761C36.0548 10.2235 36.5767 10.3896 36.9088 10.6743C37.2173 10.9827 37.3833 11.386 37.3833 11.8842Z" fill="#3E3E52"/>
</svg>
