<svg width="41" height="27" viewBox="0 0 41 27" fill="none" xmlns="http://www.w3.org/2000/svg">
<path d="M31.2336 6.0375H29.6547V13.9976H31.2336V6.0375Z" fill="#3E3E52"/>
<path d="M1.57896 11.0366C1.59169 10.8669 1.63381 10.7023 1.70257 10.5536C1.77134 10.4049 1.86521 10.2753 1.97809 10.1734C2.20904 9.96151 2.51055 9.85594 2.88263 9.85662C2.9625 9.85541 3.04238 9.85916 3.12194 9.86779V8.11809C2.80764 8.11123 2.4973 8.2037 2.22159 8.3863C1.95444 8.57002 1.73261 8.83654 1.57896 9.15842V8.193H0V13.9966H1.57896V11.0366Z" fill="#3E3E52"/>
<path d="M28.5803 8.19405H27.0105V13.9977H28.5803V8.19405Z" fill="#3E3E52"/>
<path d="M8.35586 11.2624C8.35586 10.2896 8.14583 9.52413 7.72578 8.9662C7.30573 8.40827 6.70549 8.12935 5.92508 8.12935C5.46871 8.11794 5.01729 8.24521 4.6122 8.49965C4.24061 8.73832 3.93534 9.10406 3.73445 9.55115C3.52133 10.0342 3.41443 10.5754 3.42401 11.1228C3.41433 11.6612 3.51982 12.1934 3.73026 12.668C3.93269 13.1098 4.23986 13.4683 4.6122 13.6971C5.03044 13.9502 5.49353 14.0756 5.96106 14.0625C6.36921 14.0702 6.77464 13.9808 7.15427 13.7993C7.49885 13.6301 7.80683 13.3677 8.05463 13.0323L7.22958 12.0345C7.07845 12.2207 6.89922 12.3701 6.70159 12.4747C6.51253 12.5739 6.30857 12.625 6.10247 12.6245C5.85386 12.6338 5.60998 12.541 5.41047 12.3613C5.21222 12.1694 5.07192 11.9037 5.01134 11.6054H8.34665C8.35251 11.5265 8.35586 11.4122 8.35586 11.2624ZM4.97619 10.5863C5.01496 10.279 5.13195 9.99394 5.3109 9.77073C5.48285 9.57601 5.70959 9.46764 5.94516 9.46764C6.18072 9.46764 6.40747 9.57601 6.57942 9.77073C6.66214 9.8796 6.72623 10.0071 6.76802 10.1461C6.80981 10.285 6.82847 10.4326 6.82292 10.5803L4.97619 10.5863Z" fill="#3E3E52"/>
<path d="M20.3583 10.5813C20.5552 10.1307 20.6529 9.62643 20.642 9.11697C20.642 8.27974 20.4158 7.63039 19.9634 7.16894C19.511 6.70748 18.8736 6.47708 18.0514 6.47776H15.2575V13.9976H16.8808V11.9161H18.0874L18.9919 13.9976H20.8278L19.5358 11.5407C19.8824 11.3263 20.1687 10.9924 20.3583 10.5813ZM18.8279 10.05C18.6472 10.2524 18.3914 10.3536 18.0606 10.3536H16.8808V8.0463H18.0606C18.3908 8.0463 18.6466 8.14479 18.8279 8.34179C19.0078 8.53811 19.0982 8.81947 19.0982 9.18378C19.0982 9.54809 19.0078 9.84961 18.8279 10.05Z" fill="#3E3E52"/>
<path d="M14.0065 13.9976V6.47776H12.4275V8.95608C12.2611 8.6963 12.0471 8.48675 11.8025 8.34386C11.5428 8.19731 11.2589 8.12394 10.9724 8.12932C10.5674 8.1189 10.1681 8.24535 9.81934 8.49457C9.48565 8.74069 9.21776 9.09804 9.04785 9.52373C8.85755 10.0058 8.76327 10.535 8.77256 11.0691C8.76365 11.612 8.85933 12.1501 9.05203 12.6407C9.22488 13.0762 9.49724 13.4428 9.83691 13.6971C10.1904 13.953 10.5965 14.0832 11.0084 14.0725C11.2885 14.078 11.5659 14.0067 11.82 13.8641C12.0616 13.7223 12.2704 13.5102 12.4275 13.2468V13.9976H14.0065ZM12.1439 12.166C12.0531 12.2975 11.9388 12.4022 11.8097 12.4724C11.6805 12.5425 11.5398 12.5762 11.3983 12.5708C11.2557 12.5764 11.1138 12.5429 10.9834 12.4728C10.853 12.4027 10.7374 12.2978 10.6452 12.166C10.4584 11.864 10.3574 11.4969 10.3574 11.1197C10.3574 10.7424 10.4584 10.3753 10.6452 10.0733C10.7397 9.9472 10.855 9.84631 10.9835 9.77712C11.1121 9.70794 11.2512 9.67195 11.3919 9.67148C11.5327 9.671 11.6719 9.70604 11.8008 9.77435C11.9297 9.84267 12.0454 9.9427 12.1405 10.0682C12.3296 10.3333 12.4242 10.6838 12.4242 11.1197C12.4391 11.4981 12.3394 11.8701 12.1439 12.166Z" fill="#3E3E52"/>
<path d="M23.143 10.5115C22.5512 10.5183 22.0974 10.6754 21.7816 10.983C21.4659 11.2907 21.3077 11.7188 21.3072 12.2673C21.3072 12.8117 21.4533 13.2502 21.7456 13.5828C22.038 13.9154 22.4388 14.0817 22.9481 14.0817C23.5924 14.0817 24.0743 13.8348 24.394 13.341V13.9957H25.9462V10.22C25.94 9.55413 25.7537 9.03742 25.3872 8.66974C25.0207 8.30206 24.5064 8.1182 23.8442 8.1182C23.4693 8.11685 23.0955 8.16884 22.7305 8.27306C22.3449 8.38912 21.9692 8.54902 21.6084 8.75068L22.046 10.0409C22.2887 9.89628 22.5426 9.78139 22.8041 9.69791C23.0253 9.62408 23.2533 9.58431 23.4828 9.57952C23.7781 9.57952 24.0049 9.65537 24.1614 9.80514C24.2399 9.88227 24.3021 9.98083 24.343 10.0927C24.3839 10.2046 24.4022 10.3267 24.3965 10.4488V10.5135L23.143 10.5115ZM24.394 12.0345C24.344 12.2602 24.2241 12.454 24.0593 12.5759C23.874 12.7183 23.6579 12.7912 23.4384 12.7854C23.2678 12.7973 23.0994 12.7344 22.964 12.6083C22.907 12.5501 22.8617 12.4769 22.8317 12.3942C22.8017 12.3116 22.7877 12.2218 22.7908 12.1317C22.7908 11.7309 23.0125 11.5305 23.456 11.5305H24.3965L24.394 12.0345Z" fill="#3E3E52"/>
<path d="M28.3812 5.80683C28.2185 5.62396 28.0046 5.52231 27.7825 5.52231C27.5603 5.52231 27.3465 5.62396 27.1838 5.80683C27.0325 6.0068 26.9487 6.26792 26.9487 6.53892C26.9487 6.80992 27.0325 7.07115 27.1838 7.27112C27.3452 7.45692 27.5596 7.56058 27.7825 7.56058C28.0053 7.56058 28.2197 7.45692 28.3812 7.27112C28.5324 7.07115 28.6163 6.80992 28.6163 6.53892C28.6163 6.26792 28.5324 6.0068 28.3812 5.80683Z" fill="#3E3E52"/>
<path d="M39.828 17.6538L38.9218 18.9844H38.3929L38.5419 14.378C38.5544 13.9571 38.4975 13.5374 38.3745 13.1434L35.5772 4.08728C35.3884 3.48231 35.0521 2.96105 34.6127 2.59255C34.1734 2.22405 33.6518 2.02575 33.1172 2.02391H28.3217L27.4515 0.842955C27.2938 0.628893 27.1005 0.457639 26.8841 0.340431C26.6678 0.223222 26.4334 0.162644 26.1964 0.162842H23.8032C23.4525 0.162508 23.1106 0.295173 22.8254 0.542033C22.5402 0.788894 22.3262 1.1376 22.2134 1.53918L22.077 2.02391H0V3.94665H33.1205C33.331 3.94707 33.5365 4.02467 33.7098 4.1692C33.883 4.31373 34.016 4.51841 34.0912 4.75622L36.8884 13.8112C36.9369 13.9669 36.9588 14.1329 36.9529 14.299L36.7805 19.6544C36.7707 19.9781 36.6573 20.2846 36.4642 20.5091C36.271 20.7336 36.0133 20.8586 35.7454 20.8576H32.0871C31.8823 20.8578 31.682 20.7847 31.5116 20.6473C31.3412 20.5098 31.2084 20.3142 31.1299 20.0854L30.4362 18.0615C30.2559 17.5324 29.9495 17.0802 29.5559 16.7625C29.1624 16.4447 28.6995 16.2759 28.2263 16.2774H28.2188L6.72502 16.3786C6.27866 16.3784 5.84126 16.5301 5.46287 16.8164C5.08449 17.1028 4.78041 17.5122 4.58543 17.9978L4.23985 18.8448C4.15385 19.0543 4.02136 19.2308 3.85719 19.3544C3.69301 19.4781 3.50363 19.5441 3.31021 19.5451H0V21.4678H3.31021C3.73362 21.4656 4.15041 21.3405 4.52551 21.1029C4.9006 20.8654 5.22304 20.5223 5.4657 20.1026C5.18975 21.3111 5.3018 22.601 5.77936 23.7137C6.25693 24.8264 7.0647 25.6796 8.04065 26.1022C9.01661 26.5247 10.0886 26.4853 11.0415 25.992C11.9945 25.4987 12.758 24.5878 13.1789 23.4421H11.3088C10.9694 23.9037 10.522 24.2297 10.026 24.3767C9.52996 24.5237 9.00868 24.4849 8.5313 24.2653C8.05393 24.0458 7.64302 23.6559 7.35308 23.1474C7.06314 22.6389 6.90788 22.0359 6.90788 21.4182C6.90788 20.8005 7.06314 20.1974 7.35308 19.689C7.64302 19.1805 8.05393 18.7907 8.5313 18.5711C9.00868 18.3516 9.52996 18.3127 10.026 18.4598C10.522 18.6068 10.9694 18.9327 11.3088 19.3943H13.1764C13.0271 18.9922 12.8344 18.6159 12.6032 18.2751L14.3395 18.266C14.1054 18.6089 13.9106 18.9883 13.7605 19.3943H15.6306C15.8666 19.0729 16.1562 18.8158 16.4804 18.6396C16.8045 18.4635 17.1559 18.3724 17.5112 18.3724C17.8666 18.3724 18.2179 18.4635 18.5421 18.6396C18.8662 18.8158 19.1559 19.0729 19.3918 19.3943H21.2628C21.1076 18.9766 20.9058 18.5869 20.6629 18.2356L22.4527 18.2264C22.2067 18.5798 22.0025 18.9729 21.8461 19.3943H23.7196C24.0589 18.9323 24.5065 18.6061 25.0027 18.4589C25.4989 18.3117 26.0205 18.3504 26.4981 18.57C26.9757 18.7895 27.3868 19.1796 27.6769 19.6883C27.967 20.1969 28.1224 20.8002 28.1224 21.4182C28.1224 22.0361 27.967 22.6395 27.6769 23.1482C27.3868 23.6569 26.9757 24.0469 26.4981 24.2664C26.0205 24.486 25.4989 24.5247 25.0027 24.3775C24.5065 24.2303 24.0589 23.9041 23.7196 23.4421H21.8486C22.2319 24.4814 22.8987 25.33 23.7374 25.8461C24.576 26.3622 25.5357 26.5146 26.4561 26.2776C27.3765 26.0406 28.2017 25.4287 28.7938 24.5442C29.3859 23.6597 29.709 22.5562 29.7091 21.4182C29.709 21.2407 29.7009 21.0633 29.6848 20.8869C29.8895 21.4505 30.2256 21.9296 30.652 22.2657C31.0783 22.6018 31.5765 22.7803 32.0854 22.7793H35.7454C36.2557 22.7811 36.7553 22.6024 37.1827 22.2653C37.6101 21.9282 37.9467 21.4473 38.1511 20.8819H38.9828L39.8296 21.9819C39.8593 22.0202 39.8978 22.0468 39.9401 22.0584C39.9824 22.0699 40.0266 22.0658 40.067 22.0466C40.1074 22.0274 40.1421 21.9941 40.1666 21.9508C40.1911 21.9075 40.2043 21.8563 40.2045 21.8038L40.212 17.8237C40.2126 17.7694 40.1993 17.7163 40.1738 17.6715C40.1483 17.6268 40.112 17.5928 40.0698 17.5741C40.0277 17.5554 39.9817 17.553 39.9384 17.5673C39.8951 17.5815 39.8565 17.6118 39.828 17.6538Z" fill="#3E3E52"/>
<path d="M17.5142 24.4614C17.1586 24.4617 16.8071 24.3707 16.4828 24.1943C16.1585 24.0179 15.8689 23.7602 15.6332 23.4383H13.7622C14.085 24.3154 14.6111 25.0606 15.2769 25.5836C15.9426 26.1065 16.7195 26.3848 17.5133 26.3848C18.3072 26.3848 19.0841 26.1065 19.7498 25.5836C20.4156 25.0606 20.9417 24.3154 21.2645 23.4383H19.3944C19.1587 23.7601 18.8693 24.0177 18.5451 24.1941C18.221 24.3705 17.8696 24.4616 17.5142 24.4614Z" fill="#3E3E52"/>
<path d="M26.3972 21.4143C26.3972 21.1593 26.3134 20.9149 26.1643 20.7346C26.0153 20.5543 25.8131 20.4529 25.6022 20.4529H9.42773C9.21691 20.4529 9.01471 20.5543 8.86564 20.7346C8.71656 20.9149 8.63281 21.1593 8.63281 21.4143C8.63281 21.6693 8.71656 21.9138 8.86564 22.0941C9.01471 22.2744 9.21691 22.3757 9.42773 22.3757H25.5997C25.7043 22.3761 25.808 22.3516 25.9047 22.3034C26.0014 22.2553 26.0894 22.1845 26.1635 22.0952C26.2375 22.0059 26.2963 21.8998 26.3364 21.7829C26.3765 21.6661 26.3972 21.5408 26.3972 21.4143Z" fill="#3E3E52"/>
</svg>
