<svg xmlns="http://www.w3.org/2000/svg" xmlns:xlink="http://www.w3.org/1999/xlink" width="24" height="24" viewBox="0 0 24 24">
    <defs>
        <path id="a" d="M16 2c1.054 0 1.918.816 1.995 1.85L18 4v1.032l-.074.008a.884.884 0 0 1-.568-.158c-.347-.25-.358-.662-.358-.706V4a1 1 0 0 0-.883-.993L16 3H8a1 1 0 0 0-.993.883L7 4v16a1 1 0 0 0 .883.993L8 21h8a1 1 0 0 0 .993-.883L17 20v-4.179c.003-.333.049-1.023.85-1.098l.15-.007V20a2 2 0 0 1-1.85 1.995L16 22H8a2 2 0 0 1-1.995-1.85L6 20V4c0-1.054.816-1.918 1.85-1.995L8 2h8zm-4 16a1 1 0 1 1 0 2 1 1 0 0 1 0-2zm2.477-12.747a.4.4 0 0 1 .54-.167l5.3 2.815a.2.2 0 0 1 .09.217l-.026.059-3.172 5.088a.4.4 0 0 1-.698-.033l-.029-.075-.498-1.863c-3.493.935-5.518 2.625-6.632 5.452-.19-3.479.814-7.26 5.268-9.284l.302-.133-.48-1.785a.396.396 0 0 1 .035-.291z"/>
    </defs>
    <g fill="none" fill-rule="evenodd">
        <path d="M0 0h24v24H0z"/>
        <mask id="b" fill="#fff">
            <use xlink:href="#a"/>
        </mask>
        <use fill="#D84E55" xlink:href="#a"/>
        <g mask="url(#b)">
            <path d="M0 0h24v24H0z"/>
            <path fill="#D84E55" d="M0 0h24v24H0z"/>
        </g>
    </g>
</svg>
