<svg xmlns="http://www.w3.org/2000/svg" width="24" height="24" viewBox="0 0 24 24">
    <g fill="none" fill-rule="evenodd">
        <path d="M0 0h24v24H0z"/>
        <path fill="#D84E55" d="M21.984 12.633c-.259.099-.554.17-.864.248l-.344.085c-.787.203-1.348.714-1.62 1.482-.106.294-.23.597-.384.926-.345.742-.302 1.502.125 2.199.16.26.31.529.458.796l.138.245a84.3 84.3 0 0 1-.896.898 47.495 47.495 0 0 1-1.03-.592 2.412 2.412 0 0 0-1.225-.35 2.367 2.367 0 0 0-1.062.26c-.21.105-.448.194-.7.287l-.23.085c-.739.285-1.222.83-1.397 1.579-.074.317-.162.63-.25.945l-.076.274-.26-.001H11.361l-.094-.341c-.083-.297-.167-.595-.246-.893-.205-.764-.705-1.311-1.444-1.58-.183-.066-.36-.142-.54-.218a13.62 13.62 0 0 0-.495-.204 4.908 4.908 0 0 0-.466-.151l-.186-.054-.336-.103-.326.13c-.057.023-.115.044-.174.066-.178.065-.38.139-.588.25-.258.137-.513.283-.767.43-.105.06-.209.122-.315.182a255.19 255.19 0 0 1-.894-.9l.075-.132c.163-.292.326-.585.498-.873.45-.758.483-1.566.097-2.335-.13-.263-.239-.555-.355-.865l-.034-.092a2.101 2.101 0 0 0-1.449-1.326 76.45 76.45 0 0 0-.724-.195c-.198-.053-.396-.105-.594-.16a38.361 38.361 0 0 1 0-1.27l.22-.061c.32-.091.64-.182.962-.264.815-.208 1.387-.737 1.651-1.522.098-.288.226-.575.384-.921a2.22 2.22 0 0 0-.119-2.144 32.172 32.172 0 0 1-.455-.787l-.16-.28c.3-.295.598-.594.898-.9l.264.15c.248.143.495.284.74.429.408.242.83.364 1.254.364.366 0 .732-.091 1.086-.273.24-.122.512-.224.801-.332l.148-.056c.69-.258 1.153-.78 1.34-1.505.08-.31.163-.616.247-.923l.092-.34h1.266l.113.41c.074.265.147.529.216.793.206.793.718 1.353 1.48 1.62.308.11.617.248.98.409.312.14.631.21.946.21.396 0 .782-.11 1.145-.326.281-.168.566-.33.851-.49l.24-.136c.297.3.596.6.9.898-.193.342-.383.683-.582 1.018-.44.736-.478 1.527-.107 2.29.14.283.258.606.373.922.273.742.816 1.23 1.57 1.414.261.064.52.136.78.207l.458.125.005.246c.008.359.015.702-.008 1.023zm1-1.438c-.004-.4-.205-.657-.599-.76-.467-.121-.93-.26-1.399-.374-.438-.107-.715-.371-.869-.79a10.531 10.531 0 0 0-.412-1.015c-.227-.465-.196-.9.066-1.337.24-.402.466-.812.695-1.222.18-.321.146-.611-.124-.876-.396-.39-.789-.785-1.18-1.181-.157-.157-.322-.237-.497-.237a.763.763 0 0 0-.378.112c-.433.247-.868.487-1.296.743a1.222 1.222 0 0 1-.632.185c-.177 0-.356-.042-.54-.124-.349-.155-.695-.311-1.054-.438-.456-.161-.724-.47-.844-.93-.123-.467-.256-.93-.38-1.396-.105-.381-.365-.552-.745-.554L12.398 1h-1.196c-.399 0-.658.18-.765.573-.128.48-.263.958-.387 1.44-.102.398-.33.672-.722.819-.355.134-.716.26-1.053.434a1.372 1.372 0 0 1-.63.163c-.252 0-.498-.078-.745-.225-.39-.231-.787-.451-1.18-.678a.806.806 0 0 0-.402-.122c-.18 0-.35.08-.51.245-.38.387-.763.77-1.15 1.15-.279.273-.333.57-.136.91.241.42.475.844.723 1.259.24.397.26.794.068 1.214-.152.332-.304.668-.422 1.012-.159.475-.473.755-.95.877-.469.119-.93.256-1.395.386-.335.094-.528.319-.536.667a35.57 35.57 0 0 0 .001 1.759c.01.316.165.56.488.65.518.146 1.04.278 1.558.42.378.104.638.336.777.71.133.357.263.717.432 1.056.241.48.208.924-.06 1.377-.24.403-.466.814-.696 1.223-.173.307-.138.588.112.839.402.406.805.812 1.21 1.215.15.15.312.226.485.226a.729.729 0 0 0 .356-.101c.422-.234.835-.488 1.262-.713.215-.114.452-.186.664-.271.22.067.405.11.58.18.354.137.698.3 1.055.43.436.159.703.456.821.9.13.479.265.958.398 1.437.098.362.344.534.708.537l.517.002.688-.001h.425c.41 0 .656-.202.76-.59.126-.466.265-.93.375-1.4.104-.443.372-.715.784-.873.341-.13.69-.248 1.016-.41.211-.105.415-.156.616-.156.243 0 .481.074.72.214.416.246.835.484 1.258.718a.71.71 0 0 0 .35.1c.162 0 .315-.07.455-.207.42-.41.832-.825 1.243-1.245.244-.252.277-.535.1-.842-.24-.42-.466-.847-.719-1.26-.252-.41-.272-.817-.07-1.253.155-.331.296-.67.418-1.013.162-.454.465-.728.928-.847.481-.125.976-.223 1.43-.413.216-.092.476-.358.503-.57.07-.578.033-1.17.026-1.757zm-10.448 3.134a.767.767 0 0 1 .213.558.802.802 0 0 1-.213.575.715.715 0 0 1-.542.224.692.692 0 0 1-.53-.23.802.802 0 0 1-.215-.57c0-.225.071-.411.214-.557a.71.71 0 0 1 .531-.22c.22 0 .4.074.542.22zm-.98-1.238l-.24-3.186V8h1.368v1.905l-.242 3.186h-.886zM12.004 17h-.088c-2.653 0-4.91-2.181-4.915-4.99C6.996 9.22 9.185 7.02 11.988 7h.037c2.756 0 5.03 2.158 4.976 5.119-.05 2.813-2.256 4.877-4.997 4.88zm.018-11h-.04c-3.356.023-5.987 2.673-5.98 6.012A5.962 5.962 0 0 0 11.918 18h.086c3.141-.004 5.933-2.367 5.995-5.863C18.068 8.375 15.085 6 12.022 6z"/>
    </g>
</svg>
