<svg xmlns="http://www.w3.org/2000/svg" width="24" height="24" viewBox="0 0 24 24">
    <g fill="none" fill-rule="evenodd">
        <path d="M0 0h24v24H0z"/>
        <path fill="#D84E55" fill-rule="nonzero" d="M4 8.765a1 1 0 0 0-1 1V18a1 1 0 0 0 1 1h16a1 1 0 0 0 1-1V9.765a1 1 0 0 0-1-1H4zm16-1a2 2 0 0 1 2 2V18a2 2 0 0 1-2 2H4a2 2 0 0 1-2-2V9.765a2 2 0 0 1 2-2h16zm-1 8.47h-1V18a1 1 0 0 1-1 1h1.723c.172-.295.277-.634.277-1v-1.765zm-.277-7.47H17a1 1 0 0 1 1 1v1.765h1V9.765c0-.366-.105-.705-.277-1zm-6.361-.996L9.678 5.243a.5.5 0 0 0-.686 0L6.27 7.806l6.093-.037zM8.307 4.515a1.5 1.5 0 0 1 2.056 0l4.183 3.937c.071.067.14.121.204.163l-10.895.063a.841.841 0 0 0 .162-.126l4.29-4.037zm5.516 3.247h2.531l-2.676-2.52a.5.5 0 0 0-.686 0l-.913.86 1.744 1.66zm-1.516-3.247a1.5 1.5 0 0 1 2.056 0l4.083 3.842c.095.09.168.197.219.32l-5.422-.062-.401-.406-2.218-2.11 1.683-1.584zM21 12.529h-4.647a1.353 1.353 0 1 0 0 2.706H21V12.53zm1-1v4.706h-5.647a2.353 2.353 0 1 1 0-4.706H22zm-5.5 1.883c-.276 0-.5.21-.5.47s.224.47.5.47.5-.21.5-.47-.224-.47-.5-.47z"/>
    </g>
</svg>
